<svg width="327" height="154" viewBox="0 0 327 154" fill="none" xmlns="http://www.w3.org/2000/svg">
<g filter="url(#filter0_d_4_486)">
<path d="M4 29C4 12.9837 16.9837 0 33 0H294C310.016 0 323 12.9837 323 29V117C323 133.016 310.016 146 294 146H33C16.9837 146 4 133.016 4 117V29Z" fill="#C6D4DC"/>
<path d="M4 29C4 12.9837 16.9837 0 33 0H294C310.016 0 323 12.9837 323 29V117C323 133.016 310.016 146 294 146H33C16.9837 146 4 133.016 4 117V29Z" fill="url(#paint0_linear_4_486)" fill-opacity="0.2"/>
</g>
<defs>
<filter id="filter0_d_4_486" x="0" y="0" width="327" height="154" filterUnits="userSpaceOnUse" color-interpolation-filters="sRGB">
<feFlood flood-opacity="0" result="BackgroundImageFix"/>
<feColorMatrix in="SourceAlpha" type="matrix" values="0 0 0 0 0 0 0 0 0 0 0 0 0 0 0 0 0 0 127 0" result="hardAlpha"/>
<feOffset dy="4"/>
<feGaussianBlur stdDeviation="2"/>
<feComposite in2="hardAlpha" operator="out"/>
<feColorMatrix type="matrix" values="0 0 0 0 0 0 0 0 0 0 0 0 0 0 0 0 0 0 0.25 0"/>
<feBlend mode="normal" in2="BackgroundImageFix" result="effect1_dropShadow_4_486"/>
<feBlend mode="normal" in="SourceGraphic" in2="effect1_dropShadow_4_486" result="shape"/>
</filter>
<linearGradient id="paint0_linear_4_486" x1="163.5" y1="0" x2="163.5" y2="146" gradientUnits="userSpaceOnUse">
<stop stop-color="#464646"/>
<stop offset="1" stop-opacity="0"/>
</linearGradient>
</defs>
</svg>
