<svg width="241" height="227" viewBox="0 0 241 227" fill="none" xmlns="http://www.w3.org/2000/svg">
<g filter="url(#filter0_d_4_136)">
<path fill-rule="evenodd" clip-rule="evenodd" d="M340.434 78.333C341.073 76.301 341.62 74.2271 342.071 72.1135C351.868 26.1989 312.65 -21.0849 254.475 -33.4978C211.906 -42.5811 170.981 -30.475 148.25 -5.3357C138.128 -11.5068 126.551 -16.1953 113.923 -18.8898C63.4414 -29.6613 15.2824 -4.48508 6.35745 37.3429C-0.912058 71.4123 20.0896 106.021 55.4099 123.508C59.684 155.628 95.8801 186.598 144.761 197.028C165.16 201.381 185.002 201.566 202.436 198.3C215.382 205.814 230.261 211.631 246.486 215.093C308.266 228.275 366.167 202.325 375.81 157.132C381.877 128.697 367.396 99.4199 340.434 78.333Z" fill="#C4C4C4"/>
</g>
<defs>
<filter id="filter0_d_4_136" x="0.924355" y="-36.5039" width="380.256" height="263.029" filterUnits="userSpaceOnUse" color-interpolation-filters="sRGB">
<feFlood flood-opacity="0" result="BackgroundImageFix"/>
<feColorMatrix in="SourceAlpha" type="matrix" values="0 0 0 0 0 0 0 0 0 0 0 0 0 0 0 0 0 0 127 0" result="hardAlpha"/>
<feOffset dy="4"/>
<feGaussianBlur stdDeviation="2"/>
<feComposite in2="hardAlpha" operator="out"/>
<feColorMatrix type="matrix" values="0 0 0 0 0 0 0 0 0 0 0 0 0 0 0 0 0 0 0.15 0"/>
<feBlend mode="normal" in2="BackgroundImageFix" result="effect1_dropShadow_4_136"/>
<feBlend mode="normal" in="SourceGraphic" in2="effect1_dropShadow_4_136" result="shape"/>
</filter>
</defs>
</svg>
